<svg xmlns="http://www.w3.org/2000/svg" width="256" height="256" viewBox="0 0 256 256" version="1.1"><path d="M 114.166 69.534 C 105.729 71.365, 99.202 75.272, 97.409 79.563 C 95.293 84.627, 95.512 101.517, 97.752 106 C 104.130 118.769, 140.180 120.666, 151.992 108.854 L 155 105.846 155 92.569 C 155 79.999, 154.874 79.156, 152.637 76.743 C 149.329 73.173, 144.907 71.088, 137.164 69.447 C 128.978 67.712, 122.445 67.737, 114.166 69.534 M 115.341 80.085 C 111.394 81.031, 109.352 83.142, 110.533 85.053 C 112.219 87.782, 129.765 89.026, 137.250 86.947 C 141.591 85.742, 142.352 82.794, 138.811 80.899 C 135.923 79.353, 120.609 78.822, 115.341 80.085 M 65.453 95.060 C 49.965 104.490, 50.996 102.115, 51.022 128.306 C 51.041 147.694, 51.276 151.006, 52.881 154.500 C 53.891 156.700, 55.569 159.237, 56.609 160.138 C 59.128 162.319, 103.055 189.609, 108.904 192.626 C 118.102 197.371, 128.978 197.901, 138.999 194.092 C 146.653 191.182, 193.896 161.003, 196.845 157.139 L 199.500 153.661 199.798 129.529 C 200.080 106.775, 199.987 105.298, 198.172 103.656 C 197.114 102.698, 194.730 101.674, 192.874 101.380 C 189.869 100.904, 187.092 102.348, 167.500 114.571 C 140.700 131.291, 137.056 132.946, 127 132.971 C 122.875 132.981, 117.834 132.526, 115.799 131.961 C 111.922 130.884, 76.039 109.616, 74.765 107.640 C 73.164 105.156, 74.181 102.911, 78 100.500 C 81.175 98.496, 82 97.373, 82 95.059 C 82 91.800, 79.750 89, 77.131 89 C 76.182 89, 70.927 91.727, 65.453 95.060 M 138 97.550 C 135.525 98.259, 130.518 98.875, 126.872 98.920 C 119.345 99.011, 117.094 100.439, 118.966 103.936 C 119.900 105.683, 121.026 105.999, 126.285 105.994 C 129.703 105.991, 134.167 105.526, 136.205 104.960 C 139.906 103.932, 144 99.943, 144 97.365 C 144 95.814, 144.069 95.812, 138 97.550 M 160.500 132.037 C 147.300 140.340, 134.982 148.565, 133.128 150.316 C 128.297 154.877, 125.022 162.354, 125.010 168.850 C 125.001 173.607, 125.377 174.577, 128.400 177.600 C 131.233 180.433, 132.531 181, 136.187 181 C 140.092 181, 143.025 179.470, 162.866 167.084 C 175.126 159.430, 186.033 152.375, 187.103 151.407 C 188.900 149.781, 189.027 148.421, 188.774 133.573 C 188.515 118.366, 188.392 117.485, 186.500 117.221 C 185.309 117.055, 174.793 123.048, 160.500 132.037" stroke="none" fill="#f8fbfa" fill-rule="evenodd"/><path d="M 22.730 2.420 C 15.388 5.440, 10.756 8.986, 6.499 14.847 C -0.367 24.302, -0.057 18.630, 0.236 129.522 L 0.500 229.543 3.787 236.219 C 7.422 243.603, 13.252 249.412, 20.784 253.156 L 25.500 255.500 126.163 255.769 C 225.549 256.034, 226.895 256.011, 232.308 253.986 C 242.653 250.115, 251.224 241.673, 254.084 232.538 C 254.779 230.317, 255.720 228.072, 256.174 227.550 C 257.144 226.435, 257.313 26.354, 256.343 27.324 C 255.982 27.685, 254.678 25.501, 253.447 22.470 C 250.589 15.439, 246.859 10.570, 241.309 6.628 C 231.549 -0.305, 238.288 0.085, 128 0.065 L 28.500 0.047 22.730 2.420 M 0.481 128 C 0.481 183.275, 0.602 205.887, 0.750 178.250 C 0.898 150.612, 0.898 105.387, 0.750 77.750 C 0.602 50.112, 0.481 72.725, 0.481 128 M 114.166 69.534 C 105.729 71.365, 99.202 75.272, 97.409 79.563 C 95.293 84.627, 95.512 101.517, 97.752 106 C 104.130 118.769, 140.180 120.666, 151.992 108.854 L 155 105.846 155 92.569 C 155 79.999, 154.874 79.156, 152.637 76.743 C 149.329 73.173, 144.907 71.088, 137.164 69.447 C 128.978 67.712, 122.445 67.737, 114.166 69.534 M 115.341 80.085 C 111.394 81.031, 109.352 83.142, 110.533 85.053 C 112.219 87.782, 129.765 89.026, 137.250 86.947 C 141.591 85.742, 142.352 82.794, 138.811 80.899 C 135.923 79.353, 120.609 78.822, 115.341 80.085 M 65.453 95.060 C 49.965 104.490, 50.996 102.115, 51.022 128.306 C 51.041 147.694, 51.276 151.006, 52.881 154.500 C 53.891 156.700, 55.569 159.237, 56.609 160.138 C 59.128 162.319, 103.055 189.609, 108.904 192.626 C 118.102 197.371, 128.978 197.901, 138.999 194.092 C 146.653 191.182, 193.896 161.003, 196.845 157.139 L 199.500 153.661 199.798 129.529 C 200.080 106.775, 199.987 105.298, 198.172 103.656 C 197.114 102.698, 194.730 101.674, 192.874 101.380 C 189.869 100.904, 187.092 102.348, 167.500 114.571 C 140.700 131.291, 137.056 132.946, 127 132.971 C 122.875 132.981, 117.834 132.526, 115.799 131.961 C 111.922 130.884, 76.039 109.616, 74.765 107.640 C 73.164 105.156, 74.181 102.911, 78 100.500 C 81.175 98.496, 82 97.373, 82 95.059 C 82 91.800, 79.750 89, 77.131 89 C 76.182 89, 70.927 91.727, 65.453 95.060 M 138 97.550 C 135.525 98.259, 130.518 98.875, 126.872 98.920 C 119.345 99.011, 117.094 100.439, 118.966 103.936 C 119.900 105.683, 121.026 105.999, 126.285 105.994 C 129.703 105.991, 134.167 105.526, 136.205 104.960 C 139.906 103.932, 144 99.943, 144 97.365 C 144 95.814, 144.069 95.812, 138 97.550 M 160.500 132.037 C 147.300 140.340, 134.982 148.565, 133.128 150.316 C 128.297 154.877, 125.022 162.354, 125.010 168.850 C 125.001 173.607, 125.377 174.577, 128.400 177.600 C 131.233 180.433, 132.531 181, 136.187 181 C 140.092 181, 143.025 179.470, 162.866 167.084 C 175.126 159.430, 186.033 152.375, 187.103 151.407 C 188.900 149.781, 189.027 148.421, 188.774 133.573 C 188.515 118.366, 188.392 117.485, 186.500 117.221 C 185.309 117.055, 174.793 123.048, 160.500 132.037" stroke="none" fill="#15bd77" fill-rule="evenodd"/></svg>