<?xml version="1.0" standalone="no"?>
<!DOCTYPE svg PUBLIC "-//W3C//DTD SVG 20010904//EN"
 "http://www.w3.org/TR/2001/REC-SVG-20010904/DTD/svg10.dtd">
<svg version="1.0" xmlns="http://www.w3.org/2000/svg"
 width="217.000000pt" height="181.000000pt" viewBox="0 0 217.000000 181.000000"
 preserveAspectRatio="xMidYMid meet">

<g transform="translate(0.000000,181.000000) scale(0.100000,-0.100000)"
fill="#000000" stroke="none">
<path d="M400 465 l0 -225 35 0 c33 0 35 2 35 33 1 18 10 44 23 59 l22 27 34
-59 c33 -57 37 -60 73 -60 21 0 38 3 38 7 0 3 -20 41 -45 84 -25 43 -45 81
-45 85 0 4 20 31 45 60 25 28 45 55 45 58 0 3 -19 6 -42 6 -40 1 -47 -4 -95
-57 l-53 -58 0 133 0 132 -35 0 -35 0 0 -225z"/>
<path d="M755 541 c-54 -23 -75 -81 -46 -128 15 -23 34 -36 78 -50 45 -14 58
-22 58 -38 0 -25 -28 -31 -75 -15 -29 10 -42 10 -60 0 l-24 -13 32 -28 c70
-63 202 -20 202 66 0 27 -49 71 -99 89 -58 21 -68 31 -51 51 16 19 50 19 75 1
16 -12 22 -12 42 1 31 20 29 30 -9 53 -34 20 -88 25 -123 11z"/>
<path d="M1045 536 c-70 -31 -106 -109 -85 -185 25 -94 149 -149 211 -94 14
12 17 12 22 -2 4 -9 19 -15 42 -15 l35 0 0 150 0 150 -35 0 c-24 0 -35 -5 -35
-15 0 -19 -9 -19 -31 1 -24 22 -88 27 -124 10z m117 -82 c62 -57 2 -174 -74
-145 -62 24 -80 108 -32 149 30 27 73 25 106 -4z"/>
<path d="M1403 530 c-56 -25 -83 -70 -83 -136 0 -65 29 -111 90 -142 48 -25
91 -24 120 3 21 19 30 19 30 0 0 -10 11 -15 35 -15 l35 0 0 150 0 150 -35 0
c-24 0 -35 -5 -35 -15 0 -12 -6 -11 -32 5 -41 25 -71 25 -125 0z m118 -79 c56
-57 29 -145 -46 -145 -77 0 -115 97 -59 149 36 33 69 31 105 -4z"/>
<path d="M1803 530 c-27 -16 -33 -17 -33 -5 0 10 -11 15 -35 15 l-35 0 0 -151
0 -150 36 3 36 3 0 80 c1 44 5 92 10 106 11 31 43 51 78 47 22 -3 25 1 28 35
3 35 1 37 -25 37 -15 0 -43 -9 -60 -20z"/>
</g>
</svg>
